<svg width="22" height="22" viewBox="0 0 22 22" fill="none" xmlns="http://www.w3.org/2000/svg">
<g clip-path="url(#clip0_93_531)">
<path d="M14.9375 5.375V5.39961C14.7512 5.38555 14.5648 5.375 14.375 5.375H9.875C9.29492 5.375 8.73242 5.44883 8.19453 5.58594C8.19102 5.51562 8.1875 5.44531 8.1875 5.375C8.1875 3.51172 9.69922 2 11.5625 2C13.4258 2 14.9375 3.51172 14.9375 5.375ZM14.375 6.5C14.498 6.5 14.6211 6.50352 14.7406 6.51055C14.8883 6.52109 15.0359 6.53516 15.1836 6.55625C15.8023 5.83555 16.7234 5.375 17.75 5.375H18.1543C18.5199 5.375 18.7871 5.71953 18.6992 6.07461L18.2141 8.01523C18.7695 8.53555 19.223 9.16836 19.5324 9.875H20C20.6223 9.875 21.125 10.3777 21.125 11V14.375C21.125 14.9973 20.6223 15.5 20 15.5H18.875C18.5551 15.9254 18.1754 16.3051 17.75 16.625V18.875C17.75 19.4973 17.2473 20 16.625 20H15.5C14.8777 20 14.375 19.4973 14.375 18.875V17.75H9.875V18.875C9.875 19.4973 9.37227 20 8.75 20H7.625C7.00273 20 6.5 19.4973 6.5 18.875V16.625C5.27305 15.7039 4.43633 14.2941 4.27813 12.6875H3.26562C1.94375 12.6875 0.875 11.6187 0.875 10.2969C0.875 8.975 1.94375 7.90625 3.26562 7.90625H3.40625C3.87383 7.90625 4.25 8.28242 4.25 8.75C4.25 9.21758 3.87383 9.59375 3.40625 9.59375H3.26562C2.87891 9.59375 2.5625 9.91016 2.5625 10.2969C2.5625 10.6836 2.87891 11 3.26562 11H4.3625C4.78789 8.89766 6.39102 7.2207 8.45117 6.68281C8.90469 6.56328 9.38281 6.5 9.875 6.5H14.375ZM16.625 11.2812C16.625 11.0575 16.5361 10.8429 16.3779 10.6846C16.2196 10.5264 16.005 10.4375 15.7812 10.4375C15.5575 10.4375 15.3429 10.5264 15.1846 10.6846C15.0264 10.8429 14.9375 11.0575 14.9375 11.2812C14.9375 11.505 15.0264 11.7196 15.1846 11.8779C15.3429 12.0361 15.5575 12.125 15.7812 12.125C16.005 12.125 16.2196 12.0361 16.3779 11.8779C16.5361 11.7196 16.625 11.505 16.625 11.2812Z" fill="#3D8AFF"/>
</g>
<defs>
<clipPath id="clip0_93_531">
<rect width="20.25" height="18" fill="white" transform="translate(0.875 2)"/>
</clipPath>
</defs>
</svg>
