<svg width="22" height="22" viewBox="0 0 22 22" fill="none" xmlns="http://www.w3.org/2000/svg">
<g clip-path="url(#clip0_93_534)">
<path d="M6.5 3.125V4.25H4.8125C3.88086 4.25 3.125 5.00586 3.125 5.9375V7.625H18.875V5.9375C18.875 5.00586 18.1191 4.25 17.1875 4.25H15.5V3.125C15.5 2.50273 14.9973 2 14.375 2C13.7527 2 13.25 2.50273 13.25 3.125V4.25H8.75V3.125C8.75 2.50273 8.24727 2 7.625 2C7.00273 2 6.5 2.50273 6.5 3.125ZM18.875 8.75H3.125V18.3125C3.125 19.2441 3.88086 20 4.8125 20H17.1875C18.1191 20 18.875 19.2441 18.875 18.3125V8.75Z" fill="#3D8AFF"/>
</g>
<defs>
<clipPath id="clip0_93_534">
<rect width="15.75" height="18" fill="white" transform="translate(3.125 2)"/>
</clipPath>
</defs>
</svg>
