<svg width="22" height="22" viewBox="0 0 22 22" fill="none" xmlns="http://www.w3.org/2000/svg">
<g clip-path="url(#clip0_93_553)">
<path d="M3.125 3.125C1.88398 3.125 0.875 4.13398 0.875 5.375V6.5H21.125V5.375C21.125 4.13398 20.116 3.125 18.875 3.125H3.125ZM21.125 9.875H0.875V16.625C0.875 17.866 1.88398 18.875 3.125 18.875H18.875C20.116 18.875 21.125 17.866 21.125 16.625V9.875ZM4.8125 14.375H7.0625C7.37188 14.375 7.625 14.6281 7.625 14.9375C7.625 15.2469 7.37188 15.5 7.0625 15.5H4.8125C4.50312 15.5 4.25 15.2469 4.25 14.9375C4.25 14.6281 4.50312 14.375 4.8125 14.375ZM8.75 14.9375C8.75 14.6281 9.00312 14.375 9.3125 14.375H13.8125C14.1219 14.375 14.375 14.6281 14.375 14.9375C14.375 15.2469 14.1219 15.5 13.8125 15.5H9.3125C9.00312 15.5 8.75 15.2469 8.75 14.9375Z" fill="#3D8AFF"/>
</g>
<defs>
<clipPath id="clip0_93_553">
<rect width="20.25" height="18" fill="white" transform="translate(0.875 2)"/>
</clipPath>
</defs>
</svg>
