<svg width="22" height="22" viewBox="0 0 22 22" fill="none" xmlns="http://www.w3.org/2000/svg">
<g clip-path="url(#clip0_93_550)">
<path d="M0.875 2.84375C0.875 2.37617 1.25117 2 1.71875 2H3.31836C4.0918 2 4.77734 2.45 5.09727 3.125H19.5465C20.4711 3.125 21.1461 4.00391 20.9035 4.89688L19.4621 10.2512C19.1633 11.3551 18.1613 12.125 17.0188 12.125H6.87617L7.06602 13.127C7.14336 13.5242 7.49141 13.8125 7.8957 13.8125H18.0312C18.4988 13.8125 18.875 14.1887 18.875 14.6562C18.875 15.1238 18.4988 15.5 18.0312 15.5H7.8957C6.6793 15.5 5.63516 14.6352 5.41016 13.4434L3.59609 3.91602C3.57148 3.78242 3.45547 3.6875 3.31836 3.6875H1.71875C1.25117 3.6875 0.875 3.31133 0.875 2.84375ZM5.375 18.3125C5.375 18.0909 5.41865 17.8715 5.50345 17.6667C5.58826 17.462 5.71256 17.276 5.86926 17.1193C6.02596 16.9626 6.21198 16.8383 6.41672 16.7535C6.62146 16.6686 6.84089 16.625 7.0625 16.625C7.28411 16.625 7.50354 16.6686 7.70828 16.7535C7.91302 16.8383 8.09904 16.9626 8.25574 17.1193C8.41244 17.276 8.53674 17.462 8.62155 17.6667C8.70635 17.8715 8.75 18.0909 8.75 18.3125C8.75 18.5341 8.70635 18.7535 8.62155 18.9583C8.53674 19.163 8.41244 19.349 8.25574 19.5057C8.09904 19.6624 7.91302 19.7867 7.70828 19.8715C7.50354 19.9564 7.28411 20 7.0625 20C6.84089 20 6.62146 19.9564 6.41672 19.8715C6.21198 19.7867 6.02596 19.6624 5.86926 19.5057C5.71256 19.349 5.58826 19.163 5.50345 18.9583C5.41865 18.7535 5.375 18.5341 5.375 18.3125ZM17.1875 16.625C17.6351 16.625 18.0643 16.8028 18.3807 17.1193C18.6972 17.4357 18.875 17.8649 18.875 18.3125C18.875 18.7601 18.6972 19.1893 18.3807 19.5057C18.0643 19.8222 17.6351 20 17.1875 20C16.7399 20 16.3107 19.8222 15.9943 19.5057C15.6778 19.1893 15.5 18.7601 15.5 18.3125C15.5 17.8649 15.6778 17.4357 15.9943 17.1193C16.3107 16.8028 16.7399 16.625 17.1875 16.625Z" fill="#3D8AFF"/>
</g>
<defs>
<clipPath id="clip0_93_550">
<rect width="20.25" height="18" fill="white" transform="translate(0.875 2)"/>
</clipPath>
</defs>
</svg>
