<svg width="22" height="22" viewBox="0 0 22 22" fill="none" xmlns="http://www.w3.org/2000/svg">
<g clip-path="url(#clip0_93_556)">
<path d="M17.75 2C17.1875 2 13.25 3.125 13.25 8.1875V12.125C13.25 13.366 14.259 14.375 15.5 14.375H16.625V18.875C16.625 19.4973 17.1277 20 17.75 20C18.3723 20 18.875 19.4973 18.875 18.875V14.375V10.4375V3.125C18.875 2.50273 18.3723 2 17.75 2ZM5.375 2.5625C5.375 2.27422 5.16055 2.03516 4.87227 2.00352C4.58398 1.97188 4.32734 2.16172 4.26406 2.43945L3.19883 7.23125C3.14961 7.45273 3.125 7.67773 3.125 7.90273C3.125 9.51641 4.35898 10.8418 5.9375 10.9859V18.875C5.9375 19.4973 6.44023 20 7.0625 20C7.68477 20 8.1875 19.4973 8.1875 18.875V10.9859C9.76602 10.8418 11 9.51641 11 7.90273C11 7.67773 10.9754 7.45273 10.9262 7.23125L9.86094 2.43945C9.79766 2.1582 9.53398 1.97188 9.24922 2.00352C8.96445 2.03516 8.75 2.27422 8.75 2.5625V7.28047C8.75 7.47031 8.59531 7.625 8.40547 7.625C8.22617 7.625 8.07852 7.48789 8.06094 7.30859L7.62148 2.51328C7.59688 2.22148 7.3543 2 7.0625 2C6.7707 2 6.52812 2.22148 6.50352 2.51328L6.06758 7.30859C6.05 7.48789 5.90234 7.625 5.72305 7.625C5.5332 7.625 5.37852 7.47031 5.37852 7.28047L5.375 2.5625ZM7.07305 7.90625H7.0625H7.05195L7.0625 7.88164L7.07305 7.90625Z" fill="#3D8AFF"/>
</g>
<defs>
<clipPath id="clip0_93_556">
<rect width="15.75" height="18" fill="white" transform="translate(3.125 2)"/>
</clipPath>
</defs>
</svg>
