<svg width="22" height="22" viewBox="0 0 22 22" fill="none" xmlns="http://www.w3.org/2000/svg">
<g clip-path="url(#clip0_93_524)">
<path d="M4.76843 2.07758C5.066 1.94047 5.41608 1.98969 5.66463 2.20414L7.07895 3.42055L8.49327 2.20414C8.80834 1.93344 9.27395 1.93344 9.58552 2.20414L10.9998 3.42055L12.4142 2.20414C12.7292 1.93344 13.1948 1.93344 13.5064 2.20414L14.9207 3.42055L16.335 2.20414C16.5836 1.98969 16.9337 1.94047 17.2312 2.07758C17.5288 2.21469 17.7214 2.51352 17.7214 2.84398V19.1565C17.7214 19.487 17.5288 19.7858 17.2312 19.9229C16.9337 20.06 16.5836 20.0108 16.335 19.7963L14.9207 18.5799L13.5064 19.7963C13.1913 20.067 12.7257 20.067 12.4142 19.7963L10.9998 18.5799L9.58552 19.7963C9.27045 20.067 8.80484 20.067 8.49327 19.7963L7.07895 18.5799L5.66463 19.7963C5.41608 20.0108 5.066 20.06 4.76843 19.9229C4.47086 19.7858 4.27832 19.487 4.27832 19.1565V2.84398C4.27832 2.51352 4.47086 2.21469 4.76843 2.07758ZM7.63908 7.06273C7.33101 7.06273 7.07895 7.31586 7.07895 7.62523C7.07895 7.93461 7.33101 8.18773 7.63908 8.18773H14.3606C14.6687 8.18773 14.9207 7.93461 14.9207 7.62523C14.9207 7.31586 14.6687 7.06273 14.3606 7.06273H7.63908ZM7.07895 14.3752C7.07895 14.6846 7.33101 14.9377 7.63908 14.9377H14.3606C14.6687 14.9377 14.9207 14.6846 14.9207 14.3752C14.9207 14.0659 14.6687 13.8127 14.3606 13.8127H7.63908C7.33101 13.8127 7.07895 14.0659 7.07895 14.3752ZM7.63908 10.4377C7.33101 10.4377 7.07895 10.6909 7.07895 11.0002C7.07895 11.3096 7.33101 11.5627 7.63908 11.5627H14.3606C14.6687 11.5627 14.9207 11.3096 14.9207 11.0002C14.9207 10.6909 14.6687 10.4377 14.3606 10.4377H7.63908Z" fill="#3D8AFF"/>
</g>
<defs>
<clipPath id="clip0_93_524">
<rect width="13.443" height="18" fill="white" transform="translate(4.27832 2)"/>
</clipPath>
</defs>
</svg>
